<svg xmlns="http://www.w3.org/2000/svg" width="26.037" height="23.788" viewBox="0 0 26.037 23.788">
  <g id="패스_59" data-name="패스 59" transform="translate(-1.981 -1.858)" fill="none">
    <path d="M14.063,2.508a1,1,0,0,1,1.874,0l2.577,6.9a1,1,0,0,0,.913.65l7.615.184a1,1,0,0,1,.563,1.809L21.65,16.368a1,1,0,0,0-.367,1.109l2.154,6.866a1,1,0,0,1-1.5,1.137l-6.391-4.162a1,1,0,0,0-1.091,0L8.063,25.48a1,1,0,0,1-1.5-1.137l2.154-6.866a1,1,0,0,0-.367-1.109L2.4,12.051a1,1,0,0,1,.563-1.809l7.615-.184a1,1,0,0,0,.913-.65Z" stroke="none"/>
    <path d="M 15 2.85821533203125 L 12.42338943481445 9.75727653503418 C 12.13595008850098 10.52692604064941 11.41950035095215 11.03708648681641 10.59816932678223 11.05695533752441 L 2.983150482177734 11.24119567871094 L 8.937000274658203 15.55895614624023 C 9.633760452270508 16.06424713134766 9.928789138793945 16.95548629760742 9.671150207519531 17.7767162322998 L 7.517190933227539 24.64240074157715 C 7.517194747924805 24.64239883422852 7.517196655273438 24.64239692687988 7.517200469970703 24.64239501953125 L 13.90852928161621 20.48006629943848 C 14.23406982421875 20.26804542541504 14.61149978637695 20.15597534179688 15 20.15597534179688 C 15.38850021362305 20.15597534179688 15.76593017578125 20.26804542541504 16.09144020080566 20.48004531860352 L 22.4827995300293 24.64239501953125 L 20.3288402557373 17.7767162322998 C 20.07120132446289 16.95549583435059 20.36623954772949 16.06424713134766 21.06299018859863 15.5589656829834 L 27.01684951782227 11.24119567871094 L 19.40182876586914 11.05695533752441 C 18.58049964904785 11.03708648681641 17.86404991149902 10.52692604064941 17.57661056518555 9.75727653503418 L 15 2.85821533203125 M 15 1.85821533203125 C 15.38746452331543 1.85821533203125 15.77493000030518 2.074926376342773 15.93680000305176 2.508346557617188 L 18.51340866088867 9.407405853271484 C 18.65633010864258 9.79008674621582 19.01763916015625 10.04736518859863 19.4260196685791 10.0572452545166 L 27.04104042053223 10.24148559570312 C 27.99765968322754 10.26463508605957 28.37855911254883 11.48895645141602 27.60392951965332 12.05072593688965 L 21.65007019042969 16.36849594116211 C 21.30212020874023 16.62082672119141 21.15433120727539 17.06727600097656 21.28298950195312 17.47737503051758 L 23.43695068359375 24.34305572509766 C 23.71769905090332 25.23793601989746 22.72299575805664 25.99218559265137 21.93708038330078 25.48036575317383 L 15.54572010040283 21.31801605224609 C 15.21398067474365 21.10196685791016 14.78601932525635 21.10196685791016 14.45427989959717 21.31801605224609 L 8.062919616699219 25.48036575317383 C 7.277000427246094 25.99218559265137 6.282299041748047 25.23793601989746 6.56304931640625 24.34305572509766 L 8.716999053955078 17.47737503051758 C 8.845659255981445 17.06727600097656 8.697879791259766 16.62082672119141 8.349929809570312 16.36849594116211 L 2.39607048034668 12.05072593688965 C 1.621429443359375 11.48895645141602 2.002340316772461 10.26463508605957 2.958959579467773 10.24149513244629 L 10.5739803314209 10.0572452545166 C 10.98234939575195 10.04736518859863 11.34366989135742 9.79008674621582 11.4865894317627 9.407405853271484 L 14.06319999694824 2.508346557617188 C 14.22506999969482 2.074926376342773 14.61253547668457 1.85821533203125 15 1.85821533203125 Z" stroke="none" fill="#707070"/>
  </g>
</svg>
